<?xml version="1.0" encoding="UTF-8" standalone="no"?>
<!-- Created with Inkscape (http://www.inkscape.org/) -->

<svg
   width="297mm"
   height="210mm"
   viewBox="0 0 297 210"
   version="1.1"
   id="svg5"
   inkscape:version="1.2.1 (9c6d41e410, 2022-07-14)"
   sodipodi:docname="рисунок.svg"
   xmlns:inkscape="http://www.inkscape.org/namespaces/inkscape"
   xmlns:sodipodi="http://sodipodi.sourceforge.net/DTD/sodipodi-0.dtd"
   xmlns="http://www.w3.org/2000/svg"
   xmlns:svg="http://www.w3.org/2000/svg">
  <sodipodi:namedview
     id="namedview7"
     pagecolor="#ffffff"
     bordercolor="#000000"
     borderopacity="0.25"
     inkscape:showpageshadow="2"
     inkscape:pageopacity="0.0"
     inkscape:pagecheckerboard="0"
     inkscape:deskcolor="#d1d1d1"
     inkscape:document-units="mm"
     showgrid="false"
     inkscape:zoom="0.35590942"
     inkscape:cx="137.67548"
     inkscape:cy="688.37739"
     inkscape:window-width="1366"
     inkscape:window-height="745"
     inkscape:window-x="-8"
     inkscape:window-y="-8"
     inkscape:window-maximized="1"
     inkscape:current-layer="layer1" />
  <defs
     id="defs2" />
  <g
     inkscape:label="Слой 1"
     inkscape:groupmode="layer"
     id="layer1">
    <rect
       style="fill:#00ffff;stroke-width:0.264583"
       id="rect111"
       width="296.61691"
       height="82.517487"
       x="0.74340075"
       y="3.7170038" />
    <rect
       style="fill:#483737;stroke-width:0.264583"
       id="rect113"
       width="52.038055"
       height="18.585018"
       x="107.04971"
       y="85.862793" />
    <rect
       style="fill:#ac9393;stroke-width:0.264583"
       id="rect219"
       width="182.87657"
       height="26.019028"
       x="24.532225"
       y="103.70441" />
    <rect
       style="fill:#ac9393;stroke-width:0.264583"
       id="rect273"
       width="26.019028"
       height="20.81522"
       x="180.64638"
       y="85.119385" />
    <rect
       style="fill:#241c1c;stroke-width:0.264583"
       id="rect329"
       width="34.939835"
       height="8.1774082"
       x="177.30107"
       y="84.747688" />
    <rect
       style="fill:#483737;stroke-width:0.264583"
       id="rect383"
       width="43.488941"
       height="29.364328"
       x="160.57457"
       y="95.155296" />
    <rect
       style="fill:#483737;stroke-width:0.264583"
       id="rect385"
       width="140.13104"
       height="14.124614"
       x="24.160524"
       y="109.6516" />
    <rect
       style="fill:#483737;stroke-width:0.264583"
       id="rect387"
       width="20.815222"
       height="15.239719"
       x="4.4604053"
       y="120.05921" />
    <rect
       style="fill:#000080;stroke-width:0.264583"
       id="rect389"
       width="92.553391"
       height="86.234489"
       x="205.1786"
       y="82.517487" />
    <rect
       style="fill:#d45500;stroke-width:0.264583"
       id="rect443"
       width="102.5893"
       height="55.755054"
       x="103.3327"
       y="130.09514" />
    <rect
       style="fill:#a05a2c;stroke-width:0.264583"
       id="rect497"
       width="105.5629"
       height="43.860645"
       x="191.79739"
       y="166.15007" />
    <rect
       style="fill:#ff9955;stroke-width:0.264583"
       id="rect551"
       width="95.155296"
       height="27.877525"
       x="101.4742"
       y="181.38979" />
    <rect
       style="fill:#000080;stroke-width:0.264583"
       id="rect605"
       width="15.611416"
       height="7.0623069"
       x="192.1691"
       y="82.145782" />
    <rect
       style="fill:#000080;stroke-width:0.264583"
       id="rect607"
       width="11.894412"
       height="44.604042"
       x="184.36339"
       y="77.685379" />
    <path
       style="fill:#552200;stroke-width:0.264583"
       d="m 130.83853,87.349588 c -0.3717,-6.318906 4.83211,-36.054937 4.83211,-36.054937 l 3.717,34.939835 z"
       id="path663" />
    <path
       style="fill:#552200;stroke-width:0.264583"
       d="m 46.090847,79.91558 c 2.230202,-7.434006 8.549108,-37.541737 8.549108,-37.541737 l 2.601902,37.913437 z"
       id="path719" />
    <path
       style="fill:#552200;stroke-width:0.264583"
       d="m 14.496315,57.985257 c 2.230202,-4.460404 4.460404,-38.656838 4.460404,-38.656838 L 30.479431,58.72866 Z"
       id="path721" />
    <path
       style="fill:#008000;stroke-width:0.264583"
       d="M 13.752914,34.568135 C 3.3453033,30.479431 -0.74340076,22.673723 5.2038054,20.07182 11.151011,17.469918 0.37170037,12.637813 11.151011,11.522712 21.930322,10.40761 50.922951,10.40761 41.630441,17.841618 32.337933,25.275625 30.107731,39.028539 26.019026,37.170037 21.930322,35.311535 13.752914,34.568135 13.752914,34.568135 Z"
       id="path723" />
    <path
       style="fill:#008000;stroke-width:0.264583"
       d="m 48.321049,56.498458 c 14.868015,6.318906 26.762427,-0.743403 26.762427,-3.345305 0,-2.601902 10.77931,-12.637812 0.3717,-17.098216 -10.40761,-4.460404 -24.160525,-12.637813 -28.992629,-3.345304 -4.832106,9.29251 -17.098219,13.381214 -10.03591,18.585018 7.062306,5.203807 11.894412,5.203807 11.894412,5.203807 z"
       id="path779" />
    <path
       style="fill:#008000;stroke-width:0.264583"
       d="m 142.73294,70.623072 c 14.12462,-2.230202 20.07182,-6.690609 20.07182,-6.690609 l -5.2038,-10.40761 7.06231,-7.062306 -24.90393,-8.92081 -14.86802,-8.920808 c 0,0 -4.4604,14.868014 -5.2038,17.098216 -0.7434,2.230204 -4.0887,14.868017 -4.0887,14.868017 l 7.0623,7.805708 z"
       id="path781" />
    <path
       style="fill:#d38d5f;stroke-width:0.264583"
       d="M 107.79311,86.234486 C 93.668494,79.17218 55.755055,76.941978 49.436149,81.402382 43.117243,85.862786 27.505829,82.889184 19.70012,90.32319 11.894412,97.757198 2.9736031,102.5893 2.9736031,104.8195 c 0,2.23021 12.2661119,3.71701 14.8680149,3.71701 2.601902,0 6.690607,-4.46041 6.690607,-4.46041 l 82.517485,-0.7434 z"
       id="path783" />
    <path
       style="fill:#d38d5f;stroke-width:0.264583"
       d="M 44.604045,82.145782 C 42.745543,63.932463 43.860645,62.445664 35.683237,60.215462 27.505829,57.985257 10.779311,52.038054 5.5755055,55.755055 0.37170037,59.472059 1.1151011,85.862786 2.2302023,88.092988 3.3453033,90.32319 44.604045,82.145782 44.604045,82.145782 Z"
       id="path839" />
    <rect
       style="fill:#d38d5f;stroke-width:0.264583"
       id="rect893"
       width="103.70441"
       height="72.109871"
       x="1.1151011"
       y="137.15744" />
    <path
       style="fill:#800080;stroke-width:0.264583"
       d="m 5.7823009,75.16991 3.6796459,36.79646 -6.8336283,-3.15398 9.4619465,10.51327 13.141593,-11.03894 -8.410619,1.577 4.730973,-35.745137 z"
       id="path895" />
    <path
       style="fill:#800080;stroke-width:0.264583"
       d="m 170.8407,68.336283 c 5.78231,44.681417 6.30797,45.732747 6.30797,45.732747 l -7.35929,-5.25664 9.98761,16.82124 15.76991,-14.71859 h -11.5646 l 6.30796,-43.630086 z"
       id="path951" />
    <ellipse
       style="fill:#ffff00;stroke-width:0.264583"
       id="path1005"
       cx="261.25485"
       cy="27.597342"
       rx="18.923893"
       ry="17.08407" />
    <text
       xml:space="preserve"
       style="font-size:17.5493px;text-align:center;text-anchor:middle;fill:#ff0000;stroke-width:0.470072"
       x="119.96964"
       y="107.43966"
       id="text1113"
       transform="scale(0.64461195,1.5513209)"><tspan
         sodipodi:role="line"
         id="tspan1111"
         style="fill:#ff0000;stroke-width:0.470072"
         x="119.96964"
         y="107.43966">Albert Gord Building</tspan></text>
  </g>
</svg>
